<svg xmlns="http://www.w3.org/2000/svg" viewBox="0 0 320 180" role="img" aria-labelledby="title desc">
  <title id="title">Crane Reach Field</title>
  <desc id="desc">A placeholder tactical hex battlefield.</desc>
  <rect width="320" height="180" fill="#101820"/>
  <g stroke="#314654" stroke-width="2">
    <path fill="#4d7b4b" d="M160 22l26 15v30l-26 15-26-15V37z"/>
    <path fill="#896b42" d="M210 50l26 15v30l-26 15-26-15V65z"/>
    <path fill="#346b8d" d="M110 50l26 15v30l-26 15-26-15V65z"/>
    <path fill="#4d7b4b" d="M160 78l26 15v30l-26 15-26-15V93z"/>
    <path fill="#4d7b4b" d="M210 106l26 15v30l-26 15-26-15v-30z"/>
    <path fill="#4d7b4b" d="M110 106l26 15v30l-26 15-26-15v-30z"/>
  </g>
  <circle cx="144" cy="102" r="13" fill="#d95d53" stroke="#ffd166" stroke-width="4"/>
  <circle cx="194" cy="102" r="13" fill="#5b9bd5" stroke="#f4f7f8" stroke-width="2"/>
  <text x="160" y="166" fill="#f4f7f8" text-anchor="middle" font-family="system-ui, sans-serif" font-size="18">CRANE REACH</text>
</svg>
